HIERARCHY
ROOT Hips
{
  OFFSET 45.7541 100.654 -16.37
  CHANNELS 6 Xposition Yposition Zposition Zrotation Xrotation Yrotation
  JOINT Chest
  {
    OFFSET 1.23234e-007 14.8421 1.27322e-009
    CHANNELS 6 Xposition Yposition Zposition Zrotation Xrotation Yrotation
    JOINT Neck
    {
      OFFSET 0.51659 29.8236 6.51843
      CHANNELS 6 Xposition Yposition Zposition Zrotation Xrotation Yrotation
      JOINT Head
      {
        OFFSET 1.16803e-007 7.47049 6.44171e-007
        CHANNELS 6 Xposition Yposition Zposition Zrotation Xrotation Yrotation
        End Site
        {
          OFFSET -4.32676e-008 16.2908 2.16786e-007
        }
      }
    }
    JOINT LeftCollar
    {
      OFFSET 6.64893 27.3161 3.27471
      CHANNELS 6 Xposition Yposition Zposition Zrotation Xrotation Yrotation
      JOINT LeftUpArm
      {
        OFFSET 10.8584 2.41798 -0.945791
        CHANNELS 6 Xposition Yposition Zposition Zrotation Xrotation Yrotation
        JOINT LeftLowArm
        {
          OFFSET 3.77631 -24.5904 -1.70468
          CHANNELS 6 Xposition Yposition Zposition Zrotation Xrotation Yrotation
          JOINT LeftHand
          {
            OFFSET 1.01026 -21.1231 1.74131
            CHANNELS 6 Xposition Yposition Zposition Zrotation Xrotation Yrotation
            End Site
            {
              OFFSET 1.17583e-006 -9.81266 -2.89439e-008
            }
          }
        }
      }
    }
    JOINT RightCollar
    {
      OFFSET -6.11406 27.2248 4.23427
      CHANNELS 6 Xposition Yposition Zposition Zrotation Xrotation Yrotation
      JOINT RightUpArm
      {
        OFFSET -10.4566 2.3285 -0.910794
        CHANNELS 6 Xposition Yposition Zposition Zrotation Xrotation Yrotation
        JOINT RightLowArm
        {
          OFFSET -3.86856 -25.191 -1.74633
          CHANNELS 6 Xposition Yposition Zposition Zrotation Xrotation Yrotation
          JOINT RightHand
          {
            OFFSET -1.04759 -20.6242 1.75213
            CHANNELS 6 Xposition Yposition Zposition Zrotation Xrotation Yrotation
            End Site
            {
              OFFSET -2.03487e-006 -9.50367 -4.31372e-006
            }
          }
        }
      }
    }
  }
  JOINT LeftUpLeg
  {
    OFFSET 9 -3.38008e-006 -5.22999e-009
    CHANNELS 6 Xposition Yposition Zposition Zrotation Xrotation Yrotation
    JOINT LeftLowLeg
    {
      OFFSET -0.575 -51.431 3.90177
      CHANNELS 6 Xposition Yposition Zposition Zrotation Xrotation Yrotation
      JOINT LeftFoot
      {
        OFFSET 2.13082e-007 -43.5882 -3.90177
        CHANNELS 6 Xposition Yposition Zposition Zrotation Xrotation Yrotation
        End Site
        {
          OFFSET 7.44796e-007 -6.93413 15.0046
        }
      }
    }
  }
  JOINT RightUpLeg
  {
    OFFSET -9 6.86154e-007 -3.19548e-009
    CHANNELS 6 Xposition Yposition Zposition Zrotation Xrotation Yrotation
    JOINT RightLowLeg
    {
      OFFSET 0.575 -51.4311 3.90177
      CHANNELS 6 Xposition Yposition Zposition Zrotation Xrotation Yrotation
      JOINT RightFoot
      {
        OFFSET -7.46079e-007 -43.5882 -3.90177
        CHANNELS 6 Xposition Yposition Zposition Zrotation Xrotation Yrotation
        End Site
        {
          OFFSET 4.66716e-007 -6.93413 15.0046
        }
      }
    }
  }
}
MOTION
Frames:	12
Frame Time:	0.0333333
45.7541 100.654 -16.37 -0.762385 1.06215 -0.142451 1.23234e-007 14.8421 1.27322e-009 0.961271 -9.73054 0.00335661 0.51659 29.8236 6.51843 -2.65073 18.8242 -0.0779087 1.16803e-007 7.47049 6.44171e-007 4.71527 -1.87699 -1.38469 6.64893 27.3161 3.27471 -2.94784 5.93879 -4.20517 10.8584 2.41798 -0.945791 92.2829 9.25316 25.0562 3.77631 -24.5904 -1.70468 18.1345 -12.2743 -24.332 1.01026 -21.1231 1.74131 2.58867 4.73004 0.163876 -6.11406 27.2248 4.23427 -1.96452 7.32629 3.42623 -10.4566 2.3285 -0.910794 -87.9458 -2.1582 -35.0599 -3.86856 -25.191 -1.74633 -18.7299 -3.60676 54.5562 -1.04759 -20.6242 1.75213 -12.3709 10.1542 -0.922317 9 -3.38008e-006 -5.22999e-009 4.11877 -1.3154 7.48544 -0.575 -51.431 3.90177 -3.40561 5.70637 -2.0415 2.13082e-007 -43.5882 -3.90177 0.394762 -3.39196 -0.0458561 -9 6.86154e-007 -3.19548e-009 -1.96257 -1.40174 -9.62078 0.575 -51.4311 3.90177 1.20103 2.5002 -7.18573 -7.46079e-007 -43.5882 -3.90177 -1.61628 -2.43789 0.146147 
45.7677 100.667 -16.3984 -0.762751 1.05174 -0.23173 1.23234e-007 14.8421 1.27321e-009 0.929622 -9.72177 0.00597226 0.51659 29.8236 6.51843 -2.64809 18.8822 -0.0655054 1.16803e-007 7.47049 6.44171e-007 4.58081 -1.85274 -1.35092 6.64893 27.3161 3.27471 -2.94784 5.93879 -4.20517 10.8584 2.41798 -0.945791 92.3284 9.21337 25.0487 3.77631 -24.5904 -1.70468 18.1381 -12.2942 -24.0529 1.01026 -21.1231 1.74131 2.63114 4.75425 0.168392 -6.11406 27.2248 4.23427 -1.96452 7.32629 3.42623 -10.4566 2.3285 -0.910794 -87.8854 -2.21995 -35.1271 -3.86856 -25.191 -1.74633 -18.7482 -3.58413 54.7967 -1.04759 -20.6242 1.75213 -12.7669 10.2101 -0.934264 9 -3.38008e-006 -5.23e-009 4.10722 -1.20048 7.48644 -0.575 -51.431 3.90177 -3.41148 5.45302 -1.90554 2.13082e-007 -43.5882 -3.90177 0.396993 -3.3167 -0.0458682 -9 6.86154e-007 -3.19548e-009 -1.98102 -1.43612 -9.64998 0.575 -51.4311 3.90177 1.23752 2.55876 -7.01269 -7.46079e-007 -43.5882 -3.90177 -1.55926 -2.33191 0.142022 
45.8101 100.66 -16.393 -0.757965 1.10902 -0.36312 1.23234e-007 14.8421 1.27321e-009 0.956058 -9.78305 0.041245 0.51659 29.8236 6.51843 -2.68723 18.8791 -0.0231007 1.16803e-007 7.47049 6.44171e-007 4.59761 -1.82259 -1.33121 6.64893 27.3161 3.27471 -2.94784 5.93879 -4.20517 10.8584 2.41798 -0.945791 92.3622 9.24325 24.9006 3.77631 -24.5904 -1.70468 18.0811 -12.2677 -23.8276 1.01026 -21.1231 1.74131 2.56039 4.69698 0.159646 -6.11406 27.2248 4.23427 -1.96452 7.32629 3.42623 -10.4566 2.3285 -0.910794 -87.9233 -2.19104 -35.0115 -3.86856 -25.191 -1.74633 -18.7163 -3.55494 54.7183 -1.04759 -20.6242 1.75213 -10.9614 9.79345 -0.879489 9 -3.38008e-006 -5.23e-009 4.07447 -1.22222 7.44551 -0.575 -51.431 3.90177 -3.37247 5.39023 -1.67763 2.13082e-007 -43.5882 -3.90177 0.301669 -3.28816 -0.0391115 -9 6.86154e-007 -3.19547e-009 -2.01129 -1.54127 -9.66635 0.575 -51.4311 3.90177 1.26974 2.66425 -6.66854 -7.46079e-007 -43.5882 -3.90177 -1.42858 -2.11335 0.132616 
45.8322 100.648 -16.3588 -0.823529 1.17999 -0.540128 1.23234e-007 14.8421 1.2732e-009 1.03128 -9.86911 0.117501 0.51659 29.8236 6.51843 -2.74051 19.012 0.0172419 1.16803e-007 7.47049 6.44171e-007 4.7066 -1.91603 -1.33159 6.64893 27.3161 3.27471 -2.94784 5.93879 -4.20517 10.8584 2.41798 -0.945791 92.2951 9.29354 24.7034 3.77631 -24.5904 -1.70468 18.0244 -12.2829 -22.9415 1.01026 -21.1231 1.74131 3.69179 4.38342 0.247102 -6.11406 27.2248 4.23427 -1.96452 7.32629 3.42623 -10.4566 2.3285 -0.910794 -87.9216 -2.11914 -34.6443 -3.86856 -25.191 -1.74633 -18.6226 -3.51549 54.4557 -1.04759 -20.6242 1.75213 -10.5829 9.71835 -0.87023 9 -3.38008e-006 -5.23e-009 4.0487 -0.983446 7.38212 -0.575 -51.431 3.90177 -3.29435 4.82607 -1.56359 2.13082e-007 -43.5882 -3.90177 0.603444 -3.32479 -0.0603461 -9 6.86154e-007 -3.19547e-009 -1.96403 -1.65921 -9.62451 0.575 -51.4311 3.90177 1.25436 2.74977 -6.66766 -7.46079e-007 -43.5882 -3.90177 -1.4498 -2.23711 0.134327 
45.8404 100.653 -16.3211 -0.868822 1.16684 -0.683467 1.23234e-007 14.8421 1.27319e-009 0.996748 -9.87119 0.160653 0.51659 29.8236 6.51843 -2.92061 19.2443 0.122592 1.16803e-007 7.47049 6.44171e-007 4.92589 -2.05221 -1.34548 6.64893 27.3161 3.27471 -2.94784 5.93879 -4.20517 10.8584 2.41798 -0.945791 92.2692 9.29614 24.4746 3.77631 -24.5904 -1.70468 17.9512 -12.3094 -21.6599 1.01026 -21.1231 1.74131 5.12177 4.23231 0.367261 -6.11406 27.2248 4.23427 -1.96452 7.32629 3.42623 -10.4566 2.3285 -0.910794 -87.8107 -2.13775 -34.5963 -3.86856 -25.191 -1.74633 -18.6221 -3.51706 54.6571 -1.04759 -20.6242 1.75213 -12.7134 10.2807 -0.929131 9 -3.38008e-006 -5.23001e-009 4.10801 -0.968807 7.44403 -0.575 -51.431 3.90177 -3.33249 4.93931 -1.51855 2.13082e-007 -43.5882 -3.90177 0.62895 -3.43057 -0.0624348 -9 6.86154e-007 -3.19547e-009 -1.93131 -1.71689 -9.60627 0.575 -51.4311 3.90177 1.23521 2.92263 -6.63462 -7.46079e-007 -43.5882 -3.90177 -1.40701 -2.2923 0.131431 
45.8455 100.65 -16.3199 -0.884264 1.20308 -0.815349 1.23234e-007 14.8421 1.27318e-009 0.998063 -9.88906 0.232109 0.51659 29.8236 6.51843 -3.02534 19.3457 0.205822 1.16803e-007 7.47049 6.44171e-007 5.00835 -2.13555 -1.32372 6.64893 27.3161 3.27471 -2.94784 5.93879 -4.20517 10.8584 2.41798 -0.945791 92.3184 9.25943 24.4394 3.77631 -24.5904 -1.70468 17.9108 -12.2809 -21.5647 1.01026 -21.1231 1.74131 5.17738 4.27271 0.373342 -6.11406 27.2248 4.23427 -1.96452 7.32629 3.42623 -10.4566 2.3285 -0.910794 -87.7974 -2.15121 -34.8133 -3.86856 -25.191 -1.74633 -18.6799 -3.56687 55.2146 -1.04759 -20.6242 1.75213 -12.5013 10.585 -0.908681 9 -3.38008e-006 -5.23001e-009 4.23084 -1.36384 7.56183 -0.575 -51.431 3.90177 -3.42124 5.75479 -1.40746 2.13082e-007 -43.5882 -3.90177 0.28287 -3.54225 -0.0384392 -9 6.86154e-007 -3.19547e-009 -1.89096 -1.61998 -9.55802 0.575 -51.4311 3.90177 1.26924 2.60592 -6.46057 -7.46079e-007 -43.5882 -3.90177 -1.4565 -2.13461 0.134639 
45.8494 100.644 -16.3221 -0.899794 1.28611 -0.986715 1.23234e-007 14.8421 1.27317e-009 1.0529 -9.94893 0.3318 0.51659 29.8236 6.51843 -2.99233 19.3933 0.273483 1.16803e-007 7.47049 6.44171e-007 4.84443 -2.23439 -1.20988 6.64893 27.3161 3.27471 -2.94784 5.93879 -4.20517 10.8584 2.41798 -0.945791 92.291 9.26931 24.4819 3.77631 -24.5904 -1.70468 17.9208 -12.2841 -21.5878 1.01026 -21.1231 1.74131 4.92573 4.17395 0.349069 -6.11406 27.2248 4.23427 -1.96452 7.32629 3.42623 -10.4566 2.3285 -0.910794 -87.8527 -2.13747 -34.8381 -3.86856 -25.191 -1.74633 -18.6883 -3.59324 55.3373 -1.04759 -20.6242 1.75213 -12.504 10.5934 -0.908289 9 -3.38008e-006 -5.23002e-009 4.24102 -1.28683 7.58518 -0.575 -51.431 3.90177 -3.44785 5.45602 -1.22433 2.13082e-007 -43.5882 -3.90177 0.415669 -3.53195 -0.0475743 -9 6.86154e-007 -3.19546e-009 -1.86593 -1.66879 -9.50686 0.575 -51.4311 3.90177 1.27233 2.48282 -6.32889 -7.46079e-007 -43.5882 -3.90177 -1.54064 -2.18657 0.140673 
45.863 100.649 -16.312 -0.892277 1.31805 -1.15475 1.23234e-007 14.8421 1.27315e-009 1.06937 -9.92549 0.428944 0.51659 29.8236 6.51843 -3.04611 19.3848 0.317332 1.16803e-007 7.47049 6.44171e-007 4.74816 -2.24549 -1.17651 6.64893 27.3161 3.27471 -2.94784 5.93879 -4.20517 10.8584 2.41798 -0.945791 92.2211 9.27485 24.586 3.77631 -24.5904 -1.70468 17.9414 -12.3206 -21.3057 1.01026 -21.1231 1.74131 4.85581 4.23858 0.3442 -6.11406 27.2248 4.23427 -1.96452 7.32629 3.42623 -10.4566 2.3285 -0.910794 -87.8969 -2.11478 -34.7854 -3.86856 -25.191 -1.74633 -18.6812 -3.5958 55.0498 -1.04759 -20.6242 1.75213 -12.8327 10.3515 -0.928552 9 -3.38008e-006 -5.23002e-009 4.25335 -1.27825 7.62804 -0.575 -51.431 3.90177 -3.50153 5.44042 -1.10664 2.13082e-007 -43.5882 -3.90177 0.458723 -3.5299 -0.0505154 -9 6.86154e-007 -3.19546e-009 -1.89284 -1.80989 -9.51933 0.575 -51.4311 3.90177 1.27732 2.68496 -6.08508 -7.46079e-007 -43.5882 -3.90177 -1.44676 -2.11955 0.133839 
45.8674 100.649 -16.2974 -0.894162 1.29806 -1.25808 1.23234e-007 14.8421 1.27314e-009 1.09456 -9.89377 0.47743 0.51659 29.8236 6.51843 -2.97534 19.5267 0.300813 1.16803e-007 7.47049 6.44171e-007 4.65559 -2.33822 -1.14167 6.64893 27.3161 3.27471 -2.94784 5.93879 -4.20517 10.8584 2.41798 -0.945791 92.1444 9.24036 24.7083 3.77631 -24.5904 -1.70468 17.96 -12.3361 -21.336 1.01026 -21.1231 1.74131 4.74183 4.50539 0.340121 -6.11406 27.2248 4.23427 -1.96452 7.32629 3.42623 -10.4566 2.3285 -0.910794 -87.9193 -2.10747 -34.6965 -3.86856 -25.191 -1.74633 -18.6656 -3.56136 54.9408 -1.04759 -20.6242 1.75213 -12.8362 10.396 -0.926704 9 -3.38008e-006 -5.23003e-009 4.30237 -1.33857 7.69454 -0.575 -51.431 3.90177 -3.57445 5.68001 -1.1259 2.13082e-007 -43.5882 -3.90177 0.412971 -3.55555 -0.0474251 -9 6.86154e-007 -3.19546e-009 -1.90758 -1.81418 -9.5641 0.575 -51.4311 3.90177 1.31958 2.73142 -6.03734 -7.46079e-007 -43.5882 -3.90177 -1.38938 -2.06759 0.129689 
45.855 100.659 -16.2708 -0.912165 1.24773 -1.32607 1.23234e-007 14.8421 1.27312e-009 1.11367 -9.8719 0.504888 0.51659 29.8236 6.51843 -3.10881 19.6692 0.430014 1.16803e-007 7.47049 6.44171e-007 4.84479 -2.41406 -1.10539 6.64893 27.3161 3.27471 -2.94784 5.93879 -4.20517 10.8584 2.41798 -0.945791 92.1215 9.22552 24.7664 3.77631 -24.5904 -1.70468 17.964 -12.3211 -21.5432 1.01026 -21.1231 1.74131 4.40722 4.5861 0.313211 -6.11406 27.2248 4.23427 -1.96452 7.32629 3.42623 -10.4566 2.3285 -0.910794 -87.9575 -2.08169 -34.5431 -3.86856 -25.191 -1.74633 -18.6437 -3.53438 54.948 -1.04759 -20.6242 1.75213 -12.9325 10.4332 -0.928015 9 -3.38008e-006 -5.23004e-009 4.32389 -1.3027 7.70793 -0.575 -51.431 3.90177 -3.56468 5.77339 -1.0861 2.13082e-007 -43.5882 -3.90177 0.378362 -3.58362 -0.0451231 -9 6.86154e-007 -3.19545e-009 -1.89834 -1.78091 -9.58072 0.575 -51.4311 3.90177 1.32726 2.78754 -6.07426 -7.46079e-007 -43.5882 -3.90177 -1.4089 -2.1607 0.131298 
45.8451 100.661 -16.2464 -0.939909 1.19818 -1.4496 1.23234e-007 14.8421 1.2731e-009 1.12361 -9.83558 0.613684 0.51659 29.8236 6.51843 -3.23654 19.745 0.547665 1.16803e-007 7.47049 6.44171e-007 4.98411 -2.43736 -1.07145 6.64893 27.3161 3.27471 -2.94784 5.93879 -4.20517 10.8584 2.41798 -0.945791 92.1203 9.17948 25.0126 3.77631 -24.5904 -1.70468 18.0252 -12.3342 -21.8514 1.01026 -21.1231 1.74131 4.21665 4.68759 0.299687 -6.11406 27.2248 4.23427 -1.96452 7.32629 3.42623 -10.4566 2.3285 -0.910794 -87.9675 -2.03357 -34.4177 -3.86856 -25.191 -1.74633 -18.6147 -3.51454 54.9728 -1.04759 -20.6242 1.75213 -12.135 10.4109 -0.904281 9 -3.38008e-006 -5.23004e-009 4.34335 -1.2003 7.70505 -0.575 -51.431 3.90177 -3.53353 5.72828 -0.990061 2.13082e-007 -43.5882 -3.90177 0.37959 -3.55602 -0.0451536 -9 6.86154e-007 -3.19545e-009 -1.88636 -1.66921 -9.61599 0.575 -51.4311 3.90177 1.40782 2.66368 -5.91332 -7.46079e-007 -43.5882 -3.90177 -1.42502 -2.04695 0.132169 
45.8255 100.642 -16.2267 -0.983196 1.15379 -1.55185 1.23234e-007 14.8421 1.27308e-009 1.14523 -9.80858 0.713704 0.51659 29.8236 6.51843 -3.15247 19.9589 0.574178 1.16803e-007 7.47049 6.44171e-007 4.89769 -2.61528 -0.984687 6.64893 27.3161 3.27471 -2.94784 5.93879 -4.20517 10.8584 2.41798 -0.945791 92.164 9.17961 25.0406 3.77631 -24.5904 -1.70468 18.0415 -12.3308 -21.998 1.01026 -21.1231 1.74131 4.22194 4.75153 0.301811 -6.11406 27.2248 4.23427 -1.96452 7.32629 3.42623 -10.4566 2.3285 -0.910794 -88.009 -2.04101 -34.333 -3.86856 -25.191 -1.74633 -18.5808 -3.46695 54.8243 -1.04759 -20.6242 1.75213 -12.0202 10.4454 -0.899191 9 -3.38008e-006 -5.23005e-009 4.37424 -1.0366 7.7012 -0.575 -51.431 3.90177 -3.49734 5.52233 -0.895112 2.13082e-007 -43.5882 -3.90177 0.418393 -3.48263 -0.0476644 -9 6.86154e-007 -3.19545e-009 -1.84773 -1.52218 -9.64709 0.575 -51.4311 3.90177 1.50897 2.47374 -5.73929 -7.46079e-007 -43.5882 -3.90177 -1.45324 -1.90975 0.133931 
